<?xml version="1.0" encoding="utf-8"?>
<!-- Generator: Adobe Illustrator 22.1.0, SVG Export Plug-In . SVG Version: 6.00 Build 0)  -->
<svg version="1.1" id="Layer_1" xmlns="http://www.w3.org/2000/svg" xmlns:xlink="http://www.w3.org/1999/xlink" x="0px" y="0px"
	 viewBox="0 0 360 360" style="enable-background:new 0 0 360 360;" xml:space="preserve">
<style type="text/css">
	.st0{fill:#FFFFFF;}
</style>
<g>
	<path class="st0" d="M180,17c43.5,0,84.5,17,115.3,47.7C326,95.5,343,136.5,343,180s-17,84.5-47.7,115.3
		C264.5,326,223.5,343,180,343s-84.5-17-115.3-47.7C34,264.5,17,223.5,17,180S34,95.5,64.7,64.7C95.5,34,136.5,17,180,17 M180,0
		C80.6,0,0,80.6,0,180s80.6,180,180,180s180-80.6,180-180S279.4,0,180,0L180,0z"/>
</g>
<g>
	<path class="st0" d="M180,107c40.3,0,73,32.7,73,73s-32.7,73-73,73s-73-32.7-73-73S139.7,107,180,107 M180,90
		c-49.7,0-90,40.3-90,90s40.3,90,90,90s90-40.3,90-90S229.7,90,180,90L180,90z"/>
</g>
<g>
	<circle class="st0" cx="270" cy="90" r="15.7"/>
</g>
</svg>
