<?xml version="1.0" encoding="utf-8"?>
<!-- Generator: Adobe Illustrator 22.1.0, SVG Export Plug-In . SVG Version: 6.00 Build 0)  -->
<svg version="1.1" id="Layer_1" xmlns="http://www.w3.org/2000/svg" xmlns:xlink="http://www.w3.org/1999/xlink" x="0px" y="0px"
	 viewBox="0 0 360 360" style="enable-background:new 0 0 360 360;" xml:space="preserve">
<style type="text/css">
	.st0{fill:#FFFFFF;}
</style>
<g id="lQ6S5Z_1_">
	<g>
		<path class="st0" d="M164.6,0c9.9,0,19.7,0,29.6,0c1.6,0.4,3.2,1,4.9,1.2c76.8,8.6,138.3,63,156,138.3c2.1,8.7,3.3,17.6,4.9,26.4
			c0,9.4,0,18.9,0,28.3c-0.4,2.1-1.1,4.1-1.3,6.2c-8.1,74.4-63.5,137.1-136.3,154.4c-9.3,2.2-18.8,3.6-28.2,5.3
			c-9.4,0-18.9,0-28.3,0c-2.3-0.5-4.5-1-6.8-1.4c-10.4-2-20.7-3.9-32.7-6.2c20.3-27.7,27-58.8,34.8-90.4
			c8.1,10.2,17.8,16.3,29.5,18.3c28.2,4.8,52-4.4,72-24c18.1-17.8,27.1-40.1,31.4-64.8c8.8-51.2-16.6-98.3-64.1-116.6
			c-35.1-13.5-70.4-11.8-104.3,4.2c-51.3,24.3-73.3,85-50,135.3c5.5,11.9,13.1,22.1,24.7,28.8c6.2,3.5,7.6,2.9,9.4-3.7
			c1.4-5.2,3-10.3,3.7-15.6c0.4-2.8-0.2-6.4-1.8-8.8c-10.8-16.7-14.4-34.7-10.6-54c7.5-37.9,38.6-62.8,78.2-63
			c34-0.2,61.5,16.6,70.9,46c10,31.3,5.5,61.5-13.7,88.7c-8.4,11.9-20.3,18.8-35.2,19.9c-19.5,1.5-32.9-13.7-28.7-32.8
			c1.5-6.7,3.8-13.1,5.5-19.8c3.1-12.2,6.8-24.4,8.8-36.8c1.5-9.9-1.3-19.6-11-24.9c-9.8-5.4-19.5-3.6-28.2,3.1
			c-2.5,1.9-4.8,4.3-6.6,6.9c-11.4,16.3-10.9,34-6,52.4c0.9,3.5,1.3,7.6,0.5,11.1c-3.3,15.3-7.2,30.4-10.8,45.6
			c-5.9,25.6-13.7,51-10.4,77.8c0.5,3.8,0.6,7.5,1,11.3c-1,0.1-1.4,0.4-1.8,0.2c-1.6-0.6-3.2-1.1-4.8-1.8
			C54.9,320.6,20.3,279.8,5.4,222.4c-2.4-9.3-3.6-18.9-5.4-28.3c0-9.4,0-18.9,0-28.3c0.4-1.8,1-3.7,1.3-5.5
			C10.1,83.8,64.5,22.5,139.6,4.9C147.8,2.9,156.2,1.6,164.6,0z"/>
	</g>
</g>
</svg>
